<svg xmlns="http://www.w3.org/2000/svg" xmlns:xlink="http://www.w3.org/1999/xlink" width="500" zoomAndPan="magnify" viewBox="0 0 375 374.999991" height="500" preserveAspectRatio="xMidYMid meet" version="1.0"><defs><clipPath id="e624018df4"><path d="M 136.320312 13.269531 L 239 13.269531 L 239 138.519531 L 136.320312 138.519531 Z M 136.320312 13.269531 " clip-rule="nonzero"/></clipPath><clipPath id="9e53e33880"><path d="M 224 167 L 292 167 L 292 316 L 224 316 Z M 224 167 " clip-rule="nonzero"/></clipPath><clipPath id="e62eca55c0"><path d="M 236.3125 154.371094 L 326.378906 185.367188 L 277.566406 327.203125 L 187.5 296.203125 Z M 236.3125 154.371094 " clip-rule="nonzero"/></clipPath><clipPath id="8afed8357e"><path d="M 236.3125 154.371094 L 326.378906 185.367188 L 277.566406 327.203125 L 187.5 296.203125 Z M 236.3125 154.371094 " clip-rule="nonzero"/></clipPath><clipPath id="cc4675b55a"><path d="M 83 167 L 151 167 L 151 316 L 83 316 Z M 83 167 " clip-rule="nonzero"/></clipPath><clipPath id="30968382d6"><path d="M 48.789062 185.144531 L 138.953125 154.429688 L 187.324219 296.417969 L 97.160156 327.132812 Z M 48.789062 185.144531 " clip-rule="nonzero"/></clipPath><clipPath id="47c25ea621"><path d="M 139.128906 154.371094 L 48.96875 185.085938 L 97.339844 327.070312 L 187.5 296.355469 Z M 139.128906 154.371094 " clip-rule="nonzero"/></clipPath><clipPath id="de8c8ec1ae"><path d="M 170.113281 188.851562 L 205.363281 188.851562 L 205.363281 224.101562 L 170.113281 224.101562 Z M 170.113281 188.851562 " clip-rule="nonzero"/></clipPath><clipPath id="10a97ec314"><path d="M 179.773438 134.175781 L 194.773438 134.175781 L 194.773438 142.875 L 179.773438 142.875 Z M 179.773438 134.175781 " clip-rule="nonzero"/></clipPath><clipPath id="ca5a7b3ff7"><path d="M 187.273438 134.175781 C 183.132812 134.175781 179.773438 136.121094 179.773438 138.523438 C 179.773438 140.925781 183.132812 142.875 187.273438 142.875 C 191.417969 142.875 194.773438 140.925781 194.773438 138.523438 C 194.773438 136.121094 191.417969 134.175781 187.273438 134.175781 Z M 187.273438 134.175781 " clip-rule="nonzero"/></clipPath></defs><g clip-path="url(#e624018df4)"><path fill="#0e273c" d="M 178.378906 13.070312 C 177.945312 13.253906 177.542969 13.621094 177.382812 14.066406 C 177.476562 15.484375 177.632812 18.0625 177.820312 21.15625 L 176.980469 21.15625 L 176.09375 19.820312 L 174.15625 19.820312 C 173.621094 20.289062 173.15625 20.988281 173.15625 22.03125 C 173.15625 23.074219 173.621094 23.820312 174.15625 24.289062 L 176.09375 24.289062 L 176.980469 22.953125 L 177.929688 22.953125 C 178.074219 25.339844 178.230469 27.933594 178.382812 30.484375 L 177.449219 30.484375 L 176.5625 29.148438 L 174.625 29.148438 C 174.089844 29.617188 173.628906 30.316406 173.628906 31.359375 C 173.628906 32.402344 174.089844 33.152344 174.625 33.621094 L 176.5625 33.621094 L 177.449219 32.285156 L 178.488281 32.285156 C 178.65625 35.117188 178.816406 37.816406 178.949219 40.027344 L 178.175781 40.027344 L 177.289062 38.691406 L 175.351562 38.691406 C 174.816406 39.160156 174.351562 39.859375 174.351562 40.902344 C 174.351562 41.945312 174.816406 42.695312 175.351562 43.164062 L 177.289062 43.164062 L 178.175781 41.828125 L 179.054688 41.828125 C 179.167969 43.753906 179.246094 45.074219 179.265625 45.394531 C 179.378906 45.714844 179.488281 46.003906 179.59375 46.300781 C 180.421875 48.566406 181.050781 50.074219 181.300781 50.652344 C 181.414062 50.929688 181.410156 50.9375 181.410156 50.9375 L 181.425781 50.9375 L 179.851562 139.230469 C 175.6875 139.527344 171.328125 140.15625 167.296875 141.425781 C 160.769531 143.480469 155.085938 147.234375 152.558594 153.902344 C 150.121094 160.339844 150.421875 165.351562 151.175781 170.148438 C 151.925781 174.945312 153.125 179.496094 152.558594 185.171875 C 151.671875 194.070312 147.632812 202.5 143.804688 210.957031 C 139.976562 219.414062 136.359375 227.917969 136.4375 237.128906 C 136.445312 238.351562 136.507812 239.585938 136.65625 240.84375 C 137.648438 249.113281 141.292969 255.203125 146.242188 259.695312 C 151.191406 264.183594 157.40625 267.0625 163.476562 268.898438 C 175.613281 272.570312 187.242188 272.113281 187.242188 272.113281 C 187.242188 272.113281 198.875 272.570312 211.011719 268.898438 C 217.082031 267.0625 223.296875 264.183594 228.246094 259.695312 C 233.191406 255.203125 236.839844 249.113281 237.832031 240.84375 C 239.03125 230.820312 235.496094 221.648438 231.457031 212.617188 C 227.421875 203.589844 222.875 194.660156 221.929688 185.171875 C 221.363281 179.492188 222.5625 174.941406 223.3125 170.148438 C 224.066406 165.351562 224.367188 160.339844 221.929688 153.898438 C 219.402344 147.234375 213.71875 143.480469 207.191406 141.425781 C 203.175781 140.160156 198.832031 139.53125 194.679688 139.230469 L 193.0625 50.9375 C 193.0625 50.9375 193.816406 49.246094 194.894531 46.296875 C 195 46.003906 195.109375 45.710938 195.222656 45.394531 C 195.242188 45.074219 195.320312 43.753906 195.433594 41.824219 L 196.296875 41.824219 L 197.183594 43.160156 L 199.125 43.160156 C 199.65625 42.691406 200.121094 41.945312 200.121094 40.902344 C 200.121094 39.859375 199.65625 39.160156 199.125 38.691406 L 197.183594 38.691406 L 196.296875 40.027344 L 195.539062 40.027344 C 195.667969 37.8125 195.828125 35.117188 196 32.28125 L 197.023438 32.28125 L 197.910156 33.617188 L 199.847656 33.617188 C 200.382812 33.148438 200.84375 32.402344 200.84375 31.359375 L 200.84375 31.355469 C 200.84375 30.3125 200.382812 29.617188 199.847656 29.148438 L 197.910156 29.148438 L 197.023438 30.484375 L 196.105469 30.484375 C 196.257812 27.929688 196.414062 25.339844 196.558594 22.953125 L 197.492188 22.953125 L 198.378906 24.289062 L 200.320312 24.289062 C 200.851562 23.820312 201.316406 23.070312 201.316406 22.027344 C 201.316406 20.984375 200.851562 20.289062 200.320312 19.820312 L 198.378906 19.820312 L 197.492188 21.15625 L 196.667969 21.15625 C 196.855469 18.0625 197.011719 15.484375 197.105469 14.066406 C 196.941406 13.621094 196.542969 13.253906 196.109375 13.066406 C 193.667969 13.097656 187.242188 13.066406 187.242188 13.066406 C 187.242188 13.066406 180.820312 13.097656 178.378906 13.066406 Z M 178.378906 13.070312 " fill-opacity="1" fill-rule="nonzero"/></g><g clip-path="url(#9e53e33880)"><g clip-path="url(#e62eca55c0)"><g clip-path="url(#8afed8357e)"><path fill="#0e273c" d="M 229.117188 310.480469 C 238.03125 312.050781 264.210938 312.789062 267.644531 292.613281 C 272.78125 262.433594 211.542969 226.375 227.46875 186.046875 C 237.761719 159.992188 271.90625 166.671875 291.722656 176.25 C 275.503906 172.320312 252.832031 169.226562 245.726562 190.394531 C 235.378906 221.234375 297.003906 261.714844 287.703125 295.058594 C 283.726562 309.316406 269.40625 315.554688 254.894531 315.101562 C 246.066406 314.867188 237.476562 313.328125 229.117188 310.480469 " fill-opacity="1" fill-rule="nonzero"/></g></g></g><g clip-path="url(#cc4675b55a)"><g clip-path="url(#30968382d6)"><g clip-path="url(#47c25ea621)"><path fill="#0e273c" d="M 145.835938 310.503906 C 136.917969 312.042969 110.738281 312.703125 107.367188 292.515625 C 102.328125 262.320312 163.675781 226.453125 147.875 186.074219 C 137.664062 159.988281 103.5 166.558594 83.652344 176.078125 C 99.882812 172.195312 122.566406 169.175781 129.601562 190.367188 C 139.855469 221.238281 78.105469 261.523438 87.300781 294.894531 C 91.234375 309.167969 105.535156 315.449219 120.046875 315.042969 C 128.875 314.835938 137.472656 313.324219 145.835938 310.503906 " fill-opacity="1" fill-rule="nonzero"/></g></g></g><g clip-path="url(#de8c8ec1ae)"><path fill="#0e273c" d="M 205.363281 206.476562 C 205.363281 207.050781 205.335938 207.628906 205.28125 208.203125 C 205.222656 208.777344 205.136719 209.347656 205.027344 209.914062 C 204.914062 210.480469 204.773438 211.039062 204.605469 211.589844 C 204.4375 212.144531 204.242188 212.6875 204.023438 213.21875 C 203.800781 213.753906 203.554688 214.273438 203.28125 214.785156 C 203.011719 215.292969 202.714844 215.789062 202.394531 216.265625 C 202.074219 216.746094 201.730469 217.210938 201.363281 217.65625 C 200.996094 218.101562 200.609375 218.53125 200.203125 218.9375 C 199.792969 219.347656 199.367188 219.734375 198.921875 220.101562 C 198.472656 220.464844 198.011719 220.808594 197.53125 221.128906 C 197.050781 221.449219 196.558594 221.746094 196.046875 222.019531 C 195.539062 222.292969 195.015625 222.539062 194.484375 222.757812 C 193.949219 222.980469 193.40625 223.175781 192.855469 223.339844 C 192.304688 223.507812 191.742188 223.648438 191.175781 223.761719 C 190.613281 223.875 190.042969 223.960938 189.46875 224.015625 C 188.890625 224.070312 188.316406 224.101562 187.738281 224.101562 C 187.160156 224.101562 186.585938 224.070312 186.011719 224.015625 C 185.4375 223.960938 184.867188 223.875 184.300781 223.761719 C 183.734375 223.648438 183.175781 223.507812 182.621094 223.339844 C 182.070312 223.175781 181.527344 222.980469 180.996094 222.757812 C 180.460938 222.539062 179.941406 222.292969 179.429688 222.019531 C 178.921875 221.746094 178.425781 221.449219 177.949219 221.128906 C 177.46875 220.808594 177.003906 220.464844 176.558594 220.101562 C 176.113281 219.734375 175.683594 219.347656 175.277344 218.9375 C 174.867188 218.53125 174.480469 218.101562 174.113281 217.65625 C 173.75 217.210938 173.40625 216.746094 173.085938 216.265625 C 172.765625 215.789062 172.46875 215.292969 172.195312 214.785156 C 171.921875 214.273438 171.675781 213.753906 171.457031 213.21875 C 171.234375 212.6875 171.039062 212.144531 170.875 211.589844 C 170.707031 211.039062 170.566406 210.480469 170.453125 209.914062 C 170.339844 209.347656 170.253906 208.777344 170.199219 208.203125 C 170.140625 207.628906 170.113281 207.050781 170.113281 206.476562 C 170.113281 205.898438 170.140625 205.324219 170.199219 204.746094 C 170.253906 204.171875 170.339844 203.601562 170.453125 203.035156 C 170.566406 202.472656 170.707031 201.910156 170.875 201.359375 C 171.039062 200.808594 171.234375 200.265625 171.457031 199.730469 C 171.675781 199.199219 171.921875 198.675781 172.195312 198.167969 C 172.46875 197.65625 172.765625 197.164062 173.085938 196.683594 C 173.40625 196.203125 173.75 195.742188 174.113281 195.292969 C 174.480469 194.847656 174.867188 194.421875 175.277344 194.011719 C 175.683594 193.605469 176.113281 193.21875 176.558594 192.851562 C 177.003906 192.484375 177.46875 192.140625 177.949219 191.820312 C 178.425781 191.5 178.921875 191.203125 179.429688 190.929688 C 179.941406 190.660156 180.460938 190.414062 180.996094 190.191406 C 181.527344 189.972656 182.070312 189.777344 182.621094 189.609375 C 183.175781 189.441406 183.734375 189.300781 184.300781 189.1875 C 184.867188 189.078125 185.4375 188.992188 186.011719 188.933594 C 186.585938 188.878906 187.160156 188.851562 187.738281 188.851562 C 188.316406 188.851562 188.890625 188.878906 189.46875 188.933594 C 190.042969 188.992188 190.613281 189.078125 191.175781 189.1875 C 191.742188 189.300781 192.304688 189.441406 192.855469 189.609375 C 193.40625 189.777344 193.949219 189.972656 194.484375 190.191406 C 195.015625 190.414062 195.539062 190.660156 196.046875 190.929688 C 196.558594 191.203125 197.050781 191.5 197.53125 191.820312 C 198.011719 192.140625 198.472656 192.484375 198.921875 192.851562 C 199.367188 193.21875 199.792969 193.605469 200.203125 194.011719 C 200.609375 194.421875 200.996094 194.847656 201.363281 195.292969 C 201.730469 195.742188 202.074219 196.203125 202.394531 196.683594 C 202.714844 197.164062 203.011719 197.65625 203.28125 198.167969 C 203.554688 198.675781 203.800781 199.199219 204.023438 199.730469 C 204.242188 200.265625 204.4375 200.808594 204.605469 201.359375 C 204.773438 201.910156 204.914062 202.472656 205.027344 203.035156 C 205.136719 203.601562 205.222656 204.171875 205.28125 204.746094 C 205.335938 205.324219 205.363281 205.898438 205.363281 206.476562 Z M 205.363281 206.476562 " fill-opacity="1" fill-rule="nonzero"/></g><g clip-path="url(#10a97ec314)"><g clip-path="url(#ca5a7b3ff7)"><path fill="#0e273c" d="M 179.773438 134.175781 L 194.773438 134.175781 L 194.773438 142.875 L 179.773438 142.875 Z M 179.773438 134.175781 " fill-opacity="1" fill-rule="nonzero"/></g></g></svg>